<?xml version="1.0" standalone="no"?>
<!DOCTYPE svg PUBLIC "-//W3C//DTD SVG 20010904//EN"
 "http://www.w3.org/TR/2001/REC-SVG-20010904/DTD/svg10.dtd">
<svg version="1.0" xmlns="http://www.w3.org/2000/svg"
 width="126.000000pt" height="87.000000pt" viewBox="0 0 126.000000 87.000000"
 preserveAspectRatio="xMidYMid meet">

<g transform="translate(0.000000,87.000000) scale(0.100000,-0.100000)"
fill="#000000" stroke="none">
<path d="M393 834 c-3 -8 -2 -19 3 -24 5 -5 9 1 9 16 0 28 -3 30 -12 8z"/>
<path d="M457 764 c-4 -4 -7 -58 -7 -120 0 -119 4 -129 49 -117 21 5 21 10 19
122 -3 116 -3 116 -28 119 -14 2 -29 0 -33 -4z"/>
<path d="M564 757 c-2 -7 -3 -94 -2 -192 l3 -180 30 0 30 0 3 184 c3 193 1
200 -41 201 -10 0 -20 -6 -23 -13z"/>
<path d="M830 263 c-33 -13 -50 -37 -50 -70 0 -46 13 -68 50 -83 79 -33 154
77 91 134 -20 18 -69 28 -91 19z m65 -38 c29 -28 31 -42 9 -73 -17 -24 -65
-30 -82 -9 -24 30 -23 56 2 82 31 31 41 31 71 0z"/>
<path d="M960 263 c0 -5 11 -25 25 -45 15 -22 25 -51 25 -72 0 -25 4 -36 15
-36 11 0 15 11 15 38 0 23 9 51 25 74 30 44 30 48 6 41 -10 -2 -24 -16 -30
-29 -13 -29 -27 -31 -36 -4 -6 20 -45 48 -45 33z"/>
<path d="M40 255 c0 -3 12 -24 26 -46 17 -28 24 -51 22 -70 -3 -20 0 -29 9
-29 8 0 13 12 13 32 0 17 11 51 25 75 21 35 23 43 10 43 -8 0 -21 -11 -27 -25
-6 -14 -14 -25 -18 -25 -4 0 -12 11 -18 25 -10 21 -42 36 -42 20z"/>
<path d="M190 185 l0 -75 45 0 c25 0 45 5 45 10 0 6 -13 10 -30 10 -25 0 -30
4 -30 25 0 21 5 25 30 25 17 0 30 5 30 10 0 6 -13 10 -30 10 -23 0 -30 4 -30
20 0 16 7 20 30 20 17 0 30 5 30 10 0 6 -20 10 -45 10 l-45 0 0 -75z"/>
<path d="M325 185 c0 -52 4 -75 12 -75 8 0 13 21 15 57 l3 57 44 -57 c62 -81
77 -77 73 18 -4 88 -20 100 -24 18 l-3 -56 -40 54 c-22 30 -49 55 -60 57 -18
3 -20 -3 -20 -73z"/>
<path d="M520 185 l0 -75 45 0 c25 0 45 5 45 10 0 6 -13 10 -30 10 -25 0 -30
4 -30 25 0 21 5 25 30 25 17 0 30 5 30 10 0 6 -13 10 -30 10 -23 0 -30 4 -30
20 0 16 7 20 30 20 17 0 30 5 30 10 0 6 -20 10 -45 10 l-45 0 0 -75z"/>
<path d="M650 185 c0 -60 3 -75 15 -75 10 0 15 10 15 29 0 24 5 30 29 34 32 7
46 34 36 67 -5 16 -15 20 -51 20 l-44 0 0 -75z m65 35 c0 -16 -6 -26 -17 -28
-14 -3 -18 3 -18 28 0 25 4 31 18 28 11 -2 17 -12 17 -28z"/>
<path d="M1119 193 c-13 -37 -25 -71 -27 -75 -2 -4 3 -8 11 -8 8 0 17 7 21 15
3 9 18 15 40 15 21 0 36 -6 40 -15 3 -8 13 -15 22 -15 8 0 14 3 12 8 -1 4 -14
38 -28 75 -20 53 -29 67 -46 67 -16 0 -25 -14 -45 -67z m54 30 c2 -5 7 -20 11
-35 6 -25 4 -28 -19 -28 -26 0 -29 9 -19 48 6 22 19 29 27 15z"/>
<path d="M735 59 c-4 -6 -5 -12 -2 -15 2 -3 7 2 10 11 7 17 1 20 -8 4z"/>
<path d="M940 55 c-7 -9 -11 -17 -9 -20 3 -2 10 5 17 15 14 24 10 26 -8 5z"/>
<path d="M682 35 c0 -17 2 -22 5 -12 2 9 2 23 0 30 -3 6 -5 -1 -5 -18z"/>
<path d="M130 46 c0 -2 8 -10 18 -17 15 -13 16 -12 3 4 -13 16 -21 21 -21 13z"/>
<path d="M480 36 c0 -8 4 -17 9 -20 5 -4 7 3 4 14 -6 23 -13 26 -13 6z"/>
<path d="M1050 36 c0 -8 4 -17 9 -20 5 -4 7 3 4 14 -6 23 -13 26 -13 6z"/>
<path d="M1130 36 c0 -8 4 -17 9 -20 5 -4 7 3 4 14 -6 23 -13 26 -13 6z"/>
<path d="M890 36 c0 -2 8 -10 18 -17 15 -13 16 -12 3 4 -13 16 -21 21 -21 13z"/>
</g>
</svg>
